<?xml version="1.0" encoding="utf-8"?>
<!-- Generator: Adobe Illustrator 15.0.0, SVG Export Plug-In . SVG Version: 6.00 Build 0)  -->
<!DOCTYPE svg PUBLIC "-//W3C//DTD SVG 1.1//EN" "http://www.w3.org/Graphics/SVG/1.1/DTD/svg11.dtd">
<svg version="1.1" id="Layer_1" xmlns="http://www.w3.org/2000/svg" xmlns:xlink="http://www.w3.org/1999/xlink" x="0px" y="0px"
	 width="736px" height="156px" viewBox="0 0 736 156" enable-background="new 0 0 736 156" xml:space="preserve">
<g>
	<path fill="#A363A1" d="M435.849,11.972h-36.771c-9.561,0-17.301,7.756-17.311,17.308v36.785c0.01,9.547,7.75,17.293,17.311,17.293
		h36.771c9.566,0,17.31-7.746,17.31-17.293V29.279C453.158,19.728,445.421,11.972,435.849,11.972 M442.462,72.663
		c-1.703,1.691-4.018,2.728-6.613,2.728h-36.771c-2.591,0-4.903-1.036-6.612-2.728c-1.696-1.708-2.722-4.013-2.722-6.599V29.279
		c0-2.586,1.025-4.9,2.722-6.603c1.709-1.696,4.021-2.738,6.612-2.738h36.771c2.596,0,4.91,1.042,6.613,2.738
		c1.702,1.702,2.725,4.017,2.738,6.603v36.785C445.187,68.65,444.164,70.955,442.462,72.663"/>
	<path fill="#A363A1" d="M431.081,29.131h-6.954l-1.737,9.095h-6.203l1.732-9.095h-6.954l-1.744,9.095h-7.51v6.148h6.339
		l-1.271,6.586h-5.067v6.147h3.893l-1.744,9.092h6.95l1.754-9.092h6.204l-1.748,9.092h6.959l1.739-9.092h7.504V50.96h-6.334
		l1.271-6.586h5.062v-6.148h-3.878L431.081,29.131z M419.942,50.96h-6.209l1.268-6.586h6.202L419.942,50.96z"/>
	<path fill="#A363A1" d="M474.742,119.535c-4.063,0-7.149-1.471-9.302-4.424c-2.15-2.955-3.22-6.368-3.22-10.226
		c0-4.145,1.119-7.502,3.386-10.051c2.255-2.545,5.185-3.828,8.804-3.828c2.702,0,5.072,0.799,7.133,2.377
		c2.038,1.574,3.245,3.848,3.613,6.812h7.195V83.384h-7.195v4.2c-3.134-2.684-6.966-4.017-11.503-4.017
		c-5.307,0-10.002,2.002-14.063,6.023c-4.052,4.031-6.081,9.122-6.081,15.295c0,5.785,1.866,10.895,5.586,15.314
		c3.727,4.431,8.824,6.648,15.315,6.648c9.156,0,15.574-4.067,19.247-12.223l-6.633-3.144
		C484.485,116.854,480.377,119.535,474.742,119.535"/>
	<path fill="#A363A1" d="M536.72,97.823c0-3.562-0.306-6.243-0.955-8.109c-0.623-1.85-1.831-3.336-3.566-4.462
		c-1.749-1.128-3.971-1.685-6.694-1.685c-4.34,0-8.917,1.941-13.752,5.836V66.817h-15.426v7.138h7.394v44.552h-7.394v7.15h22.55
		v-7.15h-7.124V96.081c4.805-3.511,8.759-5.289,11.856-5.289c1.217,0,2.27,0.349,3.154,1.014c0.877,0.684,1.423,1.543,1.623,2.577
		c0.199,1.061,0.3,3.124,0.3,6.231v25.043h15.024v-7.15h-6.99V97.823z"/>
	<path fill="#A363A1" d="M580.882,99.552c0-3.322-0.186-5.744-0.575-7.277c-0.387-1.518-1.118-2.934-2.211-4.242
		c-1.108-1.322-2.778-2.386-5.015-3.213c-2.242-0.844-4.903-1.252-7.989-1.252c-8.372,0-14.265,3.183-17.678,9.561l7.702,2.026
		c1.805-3.217,4.73-4.817,8.752-4.817c2.352,0,4.249,0.451,5.699,1.359c1.45,0.89,2.37,1.912,2.77,3.031
		c0.393,1.135,0.591,2.738,0.591,4.824v4.062c-3.578-2.31-7.296-3.47-11.123-3.47c-4.13,0-7.641,1.258-10.561,3.771
		c-2.92,2.509-4.376,5.667-4.376,9.475c0,3.774,1.377,6.887,4.124,9.314c2.743,2.417,5.989,3.634,9.704,3.634
		c4.808,0,9.136-1.887,13.039-5.667v4.986h14.049v-7.148h-6.902V99.552z M572.928,115.223c-3.463,3.265-7.146,4.896-11.037,4.896
		c-2.261,0-4.047-0.639-5.354-1.941c-1.315-1.302-1.971-2.912-1.971-4.824c0-2.059,0.744-3.735,2.229-5.032
		c1.518-1.304,3.37-1.947,5.59-1.947c3.556,0,7.079,1.354,10.542,4.057V115.223z"/>
	<path fill="#A363A1" d="M615.112,84.308c-1.785,0.512-3.491,1.55-5.095,3.123c-1.61,1.584-2.862,3.051-3.767,5.441v-9.219h-14.688
		v7.148h8.248v27.707h-8.248v7.148h25.213v-7.148h-8.912V109.5c0-5.585,0.473-10.506,1.453-12.673
		c0.975-2.146,2.467-3.644,4.482-4.45c2.021-0.817,5.069-1.236,9.161-1.236h1.345v-7.595h-1.85
		C619.354,83.546,616.901,83.802,615.112,84.308"/>
	<polygon fill="#A363A1" points="642.383,83.653 628.005,83.653 628.005,90.802 634.339,90.802 634.339,118.509 628.005,118.509 
		628.005,125.657 648.729,125.657 648.729,118.509 642.383,118.509 	"/>
	<path fill="#A363A1" d="M638.07,76.188c1.335,0,2.453-0.479,3.425-1.425c0.948-0.94,1.44-2.096,1.44-3.44
		c0-1.357-0.492-2.498-1.44-3.434c-0.972-0.93-2.09-1.39-3.425-1.39c-1.415,0-2.584,0.476-3.494,1.432
		c-0.914,0.966-1.381,2.085-1.381,3.392c0,1.314,0.479,2.465,1.415,3.415C635.566,75.697,636.716,76.188,638.07,76.188"/>
	<path fill="#A363A1" d="M661.974,69.984l-8.047,7.363v6.306h-7.957v7.15h7.957v21.359c0,4.011,0.198,6.826,0.598,8.462
		c0.393,1.645,1.364,2.994,2.872,4.087c1.526,1.089,3.521,1.626,5.97,1.626c2.064,0,4.121-0.369,6.188-1.089v-7.322
		c-1.446,0.561-2.919,0.842-4.411,0.842c-1.408,0-2.287-0.377-2.651-1.122c-0.348-0.753-0.518-2.719-0.518-5.903V90.804h7.58v-7.15
		h-7.58V69.984z"/>
	<polygon fill="#A363A1" points="700.556,83.653 700.556,90.802 705.977,90.802 697.316,114.539 688.472,90.802 693.371,90.802 
		693.371,83.653 673.109,83.653 673.109,90.802 679.91,90.802 693.371,124.938 688.472,137.002 680.47,137.002 680.47,144.028 
		694.045,144.028 714.316,90.802 721.21,90.802 721.21,83.653 	"/>
	<polygon fill="#2B0023" points="482.319,12.16 507.079,12.16 507.079,18.646 490.414,18.646 490.414,24.082 505.642,24.082 
		505.642,30.348 490.414,30.348 490.414,36.27 507.517,36.27 507.517,43.229 482.319,43.229 	"/>
	<path fill="#2B0023" d="M511.829,20.644h7.181v3.091h0.091c1.345-2.305,4.395-3.74,7.094-3.74c7.525,0,8.133,5.483,8.133,8.743
		v14.492h-7.398V32.309c0-3.09,0.348-6.224-3.699-6.224c-2.784,0-4.001,2.352-4.001,4.829v12.315h-7.399V20.644z"/>
	<path fill="#2B0023" d="M538.952,27.607c0.128-2.958,1.523-4.875,3.526-6.049c1.997-1.13,4.609-1.563,7.178-1.563
		c5.351,0,10.529,1.174,10.529,7.565v9.879c0,1.916,0,4.007,0.872,5.789h-7.44c-0.263-0.695-0.351-1.39-0.438-2.131
		c-1.91,1.999-4.743,2.785-7.441,2.785c-4.308,0-7.701-2.177-7.701-6.831c0-7.354,8.007-6.793,13.145-7.834
		c1.261-0.261,1.957-0.695,1.957-2.091c0-1.695-2.045-2.351-3.568-2.351c-2.048,0-3.351,0.915-3.699,2.831H538.952z M548.524,39.315
		c3.524,0,4.702-2.004,4.527-6.658c-1.049,0.649-2.959,0.782-4.567,1.215c-1.658,0.395-3.048,1.089-3.048,2.872
		C545.437,38.574,546.874,39.315,548.524,39.315"/>
	<path fill="#2B0023" d="M565.069,12.161h7.398v10.964h0.089c1.521-2.088,3.651-3.131,6.437-3.131c6.398,0,9.532,5.57,9.532,11.441
		c0,6.357-2.999,12.448-10.094,12.448c-2.61,0-4.788-1.136-6.223-3.267h-0.087v2.611h-7.053V12.161z M572.209,31.695
		c0,3.96,1.128,6.531,4.481,6.531c3.307,0,4.44-3.439,4.44-6.531c0-2.871-1.134-6.044-4.396-6.044
		C574.732,25.651,572.209,27.041,572.209,31.695"/>
	<rect x="592.752" y="12.16" fill="#2B0023" width="7.398" height="31.068"/>
	<path fill="#2B0023" d="M611.688,33.745c0.134,3.086,1.916,5.131,5.047,5.131c1.785,0,3.526-0.822,4.223-2.479h6.919
		c-1.351,5.222-6.178,7.487-11.228,7.487c-7.354,0-12.356-4.44-12.356-12.015c0-6.918,5.526-11.875,12.181-11.875
		c8.098,0,12.145,6.09,11.797,13.751H611.688z M620.872,29.61c-0.135-2.523-1.917-4.613-4.398-4.613
		c-2.61,0-4.352,1.869-4.785,4.613H620.872z"/>
	<path fill="#2B0023" d="M654.339,43.229h-7.043v-2.611h-0.09c-1.434,2.131-3.612,3.267-6.223,3.267
		c-7.095,0-10.098-6.091-10.098-12.448c0-5.871,3.138-11.441,9.529-11.441c2.785,0,4.923,1.043,6.446,3.086h0.086V12.161h7.392
		V43.229z M638.284,31.695c0,3.092,1.134,6.531,4.53,6.531c3.612,0,4.392-3.439,4.392-6.312c0-3.264-1.176-6.263-4.392-6.263
		C639.418,25.651,638.284,28.824,638.284,31.695"/>
	<path fill="#2B0023" d="M673.109,12.161h7.398v10.964h0.089c1.521-2.088,3.651-3.131,6.438-3.131c6.397,0,9.531,5.57,9.531,11.441
		c0,6.357-2.999,12.448-10.094,12.448c-2.61,0-4.789-1.136-6.223-3.267h-0.086v2.611h-7.054V12.161z M680.249,31.695
		c0,3.96,1.127,6.531,4.481,6.531c3.307,0,4.44-3.439,4.44-6.531c0-2.871-1.134-6.044-4.396-6.044
		C682.772,25.651,680.249,27.041,680.249,31.695"/>
	<path fill="#2B0023" d="M712.845,45.231c-1.783,4.957-4.435,5.57-9.443,5.57h-3.479v-6.005h2.568c1.696,0,2.958-0.96,2.958-2.523
		c0-1.223-1.435-4.701-1.875-5.917l-5.83-15.713h7.833l4.268,14.71h0.086l4.265-14.71h7.571L712.845,45.231z"/>
</g>
<g>
	<path fill="#FFFFFF" d="M50.03,363.927H13.271c-9.557,0-17.294,7.753-17.304,17.301V418c0.009,9.543,7.747,17.287,17.304,17.287
		H50.03c9.562,0,17.302-7.744,17.302-17.287v-36.772C67.332,371.68,59.598,363.927,50.03,363.927 M56.64,424.596
		c-1.702,1.691-4.015,2.728-6.61,2.728H13.271c-2.59,0-4.901-1.036-6.609-2.728c-1.696-1.707-2.721-4.01-2.721-6.596v-36.772
		c0-2.585,1.025-4.897,2.721-6.601c1.708-1.695,4.02-2.736,6.609-2.736H50.03c2.595,0,4.908,1.041,6.61,2.736
		c1.702,1.703,2.724,4.016,2.739,6.601V418C59.363,420.586,58.342,422.889,56.64,424.596"/>
	<path fill="#FFFFFF" d="M45.264,381.08h-6.952l-1.737,9.092h-6.201l1.732-9.092h-6.952l-1.743,9.092h-7.508v6.146h6.337
		l-1.271,6.584h-5.066v6.146h3.892l-1.744,9.088H25l1.753-9.088h6.201l-1.746,9.088h6.957l1.739-9.088h7.501v-6.146h-6.333
		l1.271-6.584h5.062v-6.146h-3.877L45.264,381.08z M34.129,402.901h-6.208l1.267-6.584h6.2L34.129,402.901z"/>
	<path fill="#FFFFFF" d="M88.909,471.451c-4.062,0-7.146-1.47-9.299-4.422c-2.149-2.954-3.218-6.365-3.218-10.221
		c0-4.145,1.119-7.5,3.385-10.048c2.254-2.544,5.182-3.827,8.8-3.827c2.701,0,5.071,0.798,7.13,2.376
		c2.037,1.573,3.245,3.846,3.611,6.809h7.193v-16.806h-7.193v4.199c-3.132-2.682-6.962-4.016-11.499-4.016
		c-5.304,0-9.998,2.002-14.058,6.022c-4.051,4.03-6.079,9.118-6.079,15.29c0,5.782,1.865,10.89,5.583,15.307
		c3.725,4.43,8.821,6.647,15.31,6.647c9.153,0,15.568-4.066,19.241-12.218l-6.63-3.143
		C98.648,468.771,94.542,471.451,88.909,471.451"/>
	<path fill="#FFFFFF" d="M150.864,449.747c0-3.56-0.305-6.24-0.955-8.105c-0.623-1.849-1.829-3.335-3.565-4.461
		c-1.748-1.127-3.969-1.685-6.691-1.685c-4.338,0-8.914,1.941-13.747,5.834v-22.578h-15.42v7.136h7.391v44.536h-7.391v7.148h22.541
		v-7.148h-7.121v-22.418c4.803-3.51,8.755-5.286,11.851-5.286c1.217,0,2.269,0.348,3.154,1.012c0.876,0.684,1.422,1.542,1.622,2.577
		c0.2,1.061,0.3,3.123,0.3,6.229v25.035h15.02v-7.148h-6.988V449.747z"/>
	<path fill="#FFFFFF" d="M195.011,451.476c0-3.322-0.185-5.742-0.575-7.274c-0.386-1.518-1.118-2.934-2.209-4.241
		c-1.108-1.321-2.779-2.385-5.014-3.212c-2.242-0.843-4.901-1.252-7.986-1.252c-8.37,0-14.259,3.182-17.671,9.558l7.698,2.026
		c1.804-3.216,4.729-4.816,8.75-4.816c2.351,0,4.247,0.451,5.697,1.359c1.45,0.89,2.369,1.911,2.769,3.03
		c0.393,1.134,0.591,2.736,0.591,4.822v4.06c-3.576-2.308-7.293-3.468-11.119-3.468c-4.128,0-7.638,1.257-10.557,3.771
		c-2.918,2.508-4.375,5.664-4.375,9.471c0,3.772,1.376,6.884,4.123,9.312c2.743,2.416,5.987,3.632,9.701,3.632
		c4.805,0,9.132-1.885,13.034-5.664v4.984h14.044v-7.146h-6.9V451.476z M187.06,467.142c-3.461,3.263-7.144,4.893-11.032,4.893
		c-2.261,0-4.046-0.638-5.352-1.94c-1.316-1.302-1.97-2.911-1.97-4.822c0-2.058,0.744-3.734,2.229-5.03
		c1.517-1.304,3.369-1.946,5.588-1.946c3.554,0,7.076,1.354,10.538,4.055V467.142z"/>
	<path fill="#FFFFFF" d="M229.229,436.237c-1.785,0.511-3.49,1.549-5.093,3.121c-1.609,1.584-2.861,3.05-3.765,5.44v-9.217h-14.682
		v7.146h8.245v27.697h-8.245v7.146h25.204v-7.146h-8.909v-9.005c0-5.583,0.472-10.504,1.453-12.669
		c0.974-2.145,2.465-3.643,4.48-4.449c2.021-0.817,5.067-1.235,9.158-1.235h1.344v-7.592h-1.849
		C233.47,435.476,231.018,435.73,229.229,436.237"/>
	<polygon fill="#FFFFFF" points="256.49,435.582 242.117,435.582 242.117,442.729 248.449,442.729 248.449,470.426 242.117,470.426 
		242.117,477.572 262.835,477.572 262.835,470.426 256.49,470.426 	"/>
	<path fill="#FFFFFF" d="M252.179,428.119c1.334,0,2.452-0.479,3.423-1.424c0.948-0.939,1.44-2.094,1.44-3.438
		c0-1.356-0.492-2.497-1.44-3.433c-0.971-0.93-2.089-1.39-3.423-1.39c-1.415,0-2.583,0.476-3.493,1.431
		c-0.914,0.967-1.38,2.085-1.38,3.392c0,1.313,0.479,2.464,1.415,3.413C249.676,427.629,250.825,428.119,252.179,428.119"/>
	<path fill="#FFFFFF" d="M276.074,421.918l-8.044,7.361v6.303h-7.954v7.148h7.954v21.352c0,4.009,0.198,6.823,0.597,8.46
		c0.393,1.644,1.363,2.992,2.871,4.084c1.526,1.089,3.519,1.626,5.968,1.626c2.062,0,4.119-0.369,6.186-1.089v-7.319
		c-1.446,0.561-2.918,0.843-4.41,0.843c-1.408,0-2.286-0.378-2.65-1.123c-0.348-0.752-0.517-2.718-0.517-5.901V442.73h7.578v-7.148
		h-7.578V421.918z"/>
	<polygon fill="#FFFFFF" points="314.642,435.582 314.642,442.729 320.061,442.729 311.404,466.458 302.562,442.729 307.46,442.729 
		307.46,435.582 287.206,435.582 287.206,442.729 294.004,442.729 307.46,476.852 302.562,488.913 294.563,488.913 294.563,495.937 
		308.134,495.937 328.398,442.729 335.29,442.729 335.29,435.582 	"/>
	<polygon fill="#FFFFFF" points="96.484,364.115 121.234,364.115 121.234,370.598 104.575,370.598 104.575,376.033 119.797,376.033 
		119.797,382.297 104.575,382.297 104.575,388.217 121.672,388.217 121.672,395.173 96.484,395.173 	"/>
	<path fill="#FFFFFF" d="M125.983,372.595h7.178v3.091h0.091c1.344-2.304,4.392-3.739,7.09-3.739c7.523,0,8.13,5.481,8.13,8.741
		v14.486h-7.396v-10.917c0-3.089,0.348-6.222-3.698-6.222c-2.783,0-4,2.352-4,4.826v12.312h-7.397V372.595z"/>
	<path fill="#FFFFFF" d="M153.097,379.558c0.127-2.958,1.523-4.874,3.525-6.048c1.996-1.129,4.608-1.562,7.175-1.562
		c5.349,0,10.525,1.174,10.525,7.562v9.875c0,1.916,0,4.006,0.872,5.788h-7.438c-0.264-0.695-0.352-1.39-0.438-2.13
		c-1.909,1.998-4.742,2.783-7.438,2.783c-4.306,0-7.699-2.176-7.699-6.828c0-7.352,8.004-6.791,13.141-7.832
		c1.26-0.26,1.956-0.695,1.956-2.09c0-1.694-2.043-2.35-3.567-2.35c-2.046,0-3.349,0.914-3.697,2.831H153.097z M162.665,391.26
		c3.524,0,4.7-2.002,4.526-6.654c-1.049,0.648-2.959,0.781-4.567,1.214c-1.657,0.394-3.046,1.089-3.046,2.871
		C159.579,390.52,161.016,391.26,162.665,391.26"/>
	<path fill="#FFFFFF" d="M179.204,364.116h7.396v10.96h0.09c1.52-2.088,3.649-3.13,6.434-3.13c6.396,0,9.528,5.567,9.528,11.437
		c0,6.355-2.998,12.444-10.09,12.444c-2.609,0-4.786-1.136-6.221-3.265h-0.086v2.61h-7.051V364.116z M186.341,383.644
		c0,3.958,1.127,6.528,4.48,6.528c3.305,0,4.438-3.438,4.438-6.528c0-2.87-1.134-6.042-4.394-6.042
		C188.864,377.602,186.341,378.99,186.341,383.644"/>
	<rect x="206.877" y="364.115" fill="#FFFFFF" width="7.395" height="31.057"/>
	<path fill="#FFFFFF" d="M225.806,385.692c0.134,3.085,1.916,5.129,5.045,5.129c1.785,0,3.525-0.822,4.221-2.479h6.917
		c-1.351,5.221-6.176,7.485-11.224,7.485c-7.351,0-12.352-4.438-12.352-12.011c0-6.916,5.525-11.87,12.176-11.87
		c8.095,0,12.141,6.088,11.792,13.746H225.806z M234.987,381.559c-0.134-2.521-1.916-4.611-4.397-4.611
		c-2.609,0-4.349,1.868-4.784,4.611H234.987z"/>
	<path fill="#FFFFFF" d="M268.442,395.173h-7.041v-2.61h-0.089c-1.434,2.129-3.612,3.265-6.22,3.265
		c-7.092,0-10.094-6.089-10.094-12.444c0-5.869,3.135-11.437,9.525-11.437c2.785,0,4.921,1.042,6.444,3.085h0.086v-10.915h7.389
		V395.173z M252.394,383.644c0,3.091,1.133,6.528,4.527,6.528c3.612,0,4.391-3.438,4.391-6.31c0-3.263-1.175-6.261-4.391-6.261
		C253.527,377.602,252.394,380.773,252.394,383.644"/>
	<path fill="#FFFFFF" d="M287.206,364.116h7.396v10.96h0.09c1.52-2.088,3.649-3.13,6.435-3.13c6.396,0,9.528,5.567,9.528,11.437
		c0,6.355-2.998,12.444-10.09,12.444c-2.609,0-4.787-1.136-6.221-3.265h-0.086v2.61h-7.051V364.116z M294.343,383.644
		c0,3.958,1.127,6.528,4.48,6.528c3.305,0,4.439-3.438,4.439-6.528c0-2.87-1.134-6.042-4.394-6.042
		C296.865,377.602,294.343,378.99,294.343,383.644"/>
	<path fill="#FFFFFF" d="M326.926,397.176c-1.782,4.954-4.432,5.567-9.439,5.567h-3.478v-6.003h2.567
		c1.696,0,2.957-0.96,2.957-2.523c0-1.221-1.434-4.698-1.875-5.914l-5.828-15.708h7.83l4.266,14.706h0.086l4.263-14.706h7.568
		L326.926,397.176z"/>
</g>
<g>
	<path fill="#FFFFFF" d="M67.849,11.972H31.077c-9.561,0-17.301,7.756-17.311,17.308v36.785c0.01,9.547,7.75,17.293,17.311,17.293
		h36.771c9.566,0,17.31-7.746,17.31-17.293V29.279C85.158,19.728,77.421,11.972,67.849,11.972 M74.462,72.663
		c-1.703,1.691-4.018,2.728-6.613,2.728H31.077c-2.591,0-4.903-1.036-6.612-2.728c-1.696-1.708-2.722-4.013-2.722-6.599V29.279
		c0-2.586,1.025-4.9,2.722-6.603c1.709-1.696,4.021-2.738,6.612-2.738h36.771c2.596,0,4.91,1.042,6.613,2.738
		c1.702,1.702,2.725,4.017,2.738,6.603v36.785C77.187,68.65,76.164,70.955,74.462,72.663"/>
	<path fill="#FFFFFF" d="M63.081,29.131h-6.954l-1.737,9.095h-6.203l1.732-9.095h-6.954l-1.744,9.095h-7.51v6.148h6.339
		l-1.271,6.586h-5.067v6.147h3.893l-1.744,9.092h6.95l1.754-9.092h6.204l-1.748,9.092h6.959l1.739-9.092h7.504V50.96h-6.334
		l1.271-6.586h5.062v-6.148h-3.878L63.081,29.131z M51.942,50.96h-6.209l1.268-6.586h6.202L51.942,50.96z"/>
	<path fill="#FFFFFF" d="M106.742,119.535c-4.063,0-7.149-1.471-9.302-4.424c-2.15-2.955-3.22-6.368-3.22-10.226
		c0-4.145,1.119-7.502,3.386-10.051c2.255-2.545,5.185-3.828,8.804-3.828c2.702,0,5.072,0.799,7.133,2.377
		c2.038,1.574,3.245,3.848,3.613,6.812h7.195V83.384h-7.195v4.2c-3.134-2.684-6.966-4.017-11.503-4.017
		c-5.307,0-10.002,2.002-14.063,6.023c-4.052,4.031-6.081,9.122-6.081,15.295c0,5.785,1.866,10.895,5.586,15.314
		c3.727,4.431,8.824,6.648,15.315,6.648c9.156,0,15.574-4.067,19.247-12.223l-6.633-3.144
		C116.485,116.854,112.377,119.535,106.742,119.535"/>
	<path fill="#FFFFFF" d="M168.72,97.823c0-3.562-0.306-6.243-0.955-8.109c-0.623-1.85-1.831-3.336-3.566-4.462
		c-1.749-1.128-3.971-1.685-6.694-1.685c-4.34,0-8.917,1.941-13.752,5.836V66.817h-15.426v7.138h7.394v44.552h-7.394v7.15h22.55
		v-7.15h-7.124V96.081c4.805-3.511,8.759-5.289,11.856-5.289c1.217,0,2.27,0.349,3.154,1.014c0.877,0.684,1.423,1.543,1.623,2.577
		c0.199,1.061,0.3,3.124,0.3,6.231v25.043h15.024v-7.15h-6.99V97.823z"/>
	<path fill="#FFFFFF" d="M212.882,99.552c0-3.322-0.186-5.744-0.575-7.277c-0.387-1.518-1.118-2.934-2.211-4.242
		c-1.108-1.322-2.778-2.386-5.015-3.213c-2.242-0.844-4.903-1.252-7.989-1.252c-8.372,0-14.265,3.183-17.678,9.561l7.702,2.026
		c1.805-3.217,4.73-4.817,8.752-4.817c2.352,0,4.249,0.451,5.699,1.359c1.45,0.89,2.37,1.912,2.77,3.031
		c0.393,1.135,0.591,2.738,0.591,4.824v4.062c-3.578-2.31-7.296-3.47-11.123-3.47c-4.13,0-7.641,1.258-10.561,3.771
		c-2.92,2.509-4.376,5.667-4.376,9.475c0,3.774,1.377,6.887,4.124,9.314c2.743,2.417,5.989,3.634,9.704,3.634
		c4.808,0,9.136-1.887,13.039-5.667v4.986h14.049v-7.148h-6.902V99.552z M204.928,115.223c-3.463,3.265-7.146,4.896-11.037,4.896
		c-2.261,0-4.047-0.639-5.354-1.941c-1.315-1.302-1.971-2.912-1.971-4.824c0-2.059,0.744-3.735,2.229-5.032
		c1.518-1.304,3.37-1.947,5.59-1.947c3.556,0,7.079,1.354,10.542,4.057V115.223z"/>
	<path fill="#FFFFFF" d="M247.112,84.308c-1.785,0.512-3.491,1.55-5.095,3.123c-1.61,1.584-2.862,3.051-3.767,5.441v-9.219h-14.688
		v7.148h8.248v27.707h-8.248v7.148h25.213v-7.148h-8.912V109.5c0-5.585,0.473-10.506,1.453-12.673
		c0.975-2.146,2.467-3.644,4.482-4.45c2.021-0.817,5.069-1.236,9.161-1.236h1.345v-7.595h-1.85
		C251.354,83.546,248.901,83.802,247.112,84.308"/>
	<polygon fill="#FFFFFF" points="274.383,83.653 260.005,83.653 260.005,90.802 266.339,90.802 266.339,118.509 260.005,118.509 
		260.005,125.657 280.729,125.657 280.729,118.509 274.383,118.509 	"/>
	<path fill="#FFFFFF" d="M270.07,76.188c1.335,0,2.453-0.479,3.425-1.425c0.948-0.94,1.44-2.096,1.44-3.44
		c0-1.357-0.492-2.498-1.44-3.434c-0.972-0.93-2.09-1.39-3.425-1.39c-1.415,0-2.584,0.476-3.494,1.432
		c-0.914,0.966-1.381,2.085-1.381,3.392c0,1.314,0.479,2.465,1.415,3.415C267.566,75.697,268.716,76.188,270.07,76.188"/>
	<path fill="#FFFFFF" d="M293.974,69.984l-8.047,7.363v6.306h-7.957v7.15h7.957v21.359c0,4.011,0.198,6.826,0.598,8.462
		c0.393,1.645,1.364,2.994,2.872,4.087c1.526,1.089,3.521,1.626,5.97,1.626c2.064,0,4.121-0.369,6.188-1.089v-7.322
		c-1.446,0.561-2.919,0.842-4.411,0.842c-1.408,0-2.287-0.377-2.651-1.122c-0.348-0.753-0.518-2.719-0.518-5.903V90.804h7.58v-7.15
		h-7.58V69.984z"/>
	<polygon fill="#FFFFFF" points="332.556,83.653 332.556,90.802 337.977,90.802 329.316,114.539 320.472,90.802 325.371,90.802 
		325.371,83.653 305.109,83.653 305.109,90.802 311.91,90.802 325.371,124.938 320.472,137.002 312.47,137.002 312.47,144.028 
		326.045,144.028 346.316,90.802 353.21,90.802 353.21,83.653 	"/>
	<polygon fill="#FFFFFF" points="114.319,12.16 139.079,12.16 139.079,18.646 122.414,18.646 122.414,24.082 137.642,24.082 
		137.642,30.348 122.414,30.348 122.414,36.27 139.517,36.27 139.517,43.229 114.319,43.229 	"/>
	<path fill="#FFFFFF" d="M143.829,20.644h7.181v3.091h0.091c1.345-2.305,4.395-3.74,7.094-3.74c7.525,0,8.133,5.483,8.133,8.743
		v14.492h-7.398V32.309c0-3.09,0.348-6.224-3.699-6.224c-2.784,0-4.001,2.352-4.001,4.829v12.315h-7.399V20.644z"/>
	<path fill="#FFFFFF" d="M170.952,27.607c0.128-2.958,1.523-4.875,3.526-6.049c1.997-1.13,4.609-1.563,7.178-1.563
		c5.351,0,10.529,1.174,10.529,7.565v9.879c0,1.916,0,4.007,0.872,5.789h-7.44c-0.263-0.695-0.351-1.39-0.438-2.131
		c-1.91,1.999-4.743,2.785-7.441,2.785c-4.308,0-7.701-2.177-7.701-6.831c0-7.354,8.007-6.793,13.145-7.834
		c1.261-0.261,1.957-0.695,1.957-2.091c0-1.695-2.045-2.351-3.568-2.351c-2.048,0-3.351,0.915-3.699,2.831H170.952z M180.524,39.315
		c3.524,0,4.702-2.004,4.527-6.658c-1.049,0.649-2.959,0.782-4.567,1.215c-1.658,0.395-3.048,1.089-3.048,2.872
		C177.437,38.574,178.874,39.315,180.524,39.315"/>
	<path fill="#FFFFFF" d="M197.069,12.161h7.398v10.964h0.089c1.521-2.088,3.651-3.131,6.437-3.131c6.398,0,9.532,5.57,9.532,11.441
		c0,6.357-2.999,12.448-10.094,12.448c-2.61,0-4.788-1.136-6.223-3.267h-0.087v2.611h-7.053V12.161z M204.209,31.695
		c0,3.96,1.128,6.531,4.481,6.531c3.307,0,4.44-3.439,4.44-6.531c0-2.871-1.134-6.044-4.396-6.044
		C206.732,25.651,204.209,27.041,204.209,31.695"/>
	<rect x="224.752" y="12.16" fill="#FFFFFF" width="7.398" height="31.068"/>
	<path fill="#FFFFFF" d="M243.688,33.745c0.134,3.086,1.916,5.131,5.047,5.131c1.785,0,3.526-0.822,4.223-2.479h6.919
		c-1.351,5.222-6.178,7.487-11.228,7.487c-7.354,0-12.356-4.44-12.356-12.015c0-6.918,5.526-11.875,12.181-11.875
		c8.098,0,12.145,6.09,11.797,13.751H243.688z M252.872,29.61c-0.135-2.523-1.917-4.613-4.398-4.613
		c-2.61,0-4.352,1.869-4.785,4.613H252.872z"/>
	<path fill="#FFFFFF" d="M286.339,43.229h-7.043v-2.611h-0.09c-1.434,2.131-3.612,3.267-6.223,3.267
		c-7.095,0-10.098-6.091-10.098-12.448c0-5.871,3.138-11.441,9.529-11.441c2.785,0,4.923,1.043,6.446,3.086h0.086V12.161h7.392
		V43.229z M270.284,31.695c0,3.092,1.134,6.531,4.53,6.531c3.612,0,4.392-3.439,4.392-6.312c0-3.264-1.176-6.263-4.392-6.263
		C271.418,25.651,270.284,28.824,270.284,31.695"/>
	<path fill="#FFFFFF" d="M305.109,12.161h7.398v10.964h0.089c1.521-2.088,3.651-3.131,6.438-3.131c6.397,0,9.531,5.57,9.531,11.441
		c0,6.357-2.999,12.448-10.094,12.448c-2.61,0-4.789-1.136-6.223-3.267h-0.086v2.611h-7.054V12.161z M312.249,31.695
		c0,3.96,1.127,6.531,4.481,6.531c3.307,0,4.44-3.439,4.44-6.531c0-2.871-1.134-6.044-4.396-6.044
		C314.772,25.651,312.249,27.041,312.249,31.695"/>
	<path fill="#FFFFFF" d="M344.845,45.231c-1.783,4.957-4.435,5.57-9.443,5.57h-3.479v-6.005h2.568c1.696,0,2.958-0.96,2.958-2.523
		c0-1.223-1.435-4.701-1.875-5.917l-5.83-15.713h7.833l4.268,14.71h0.086l4.265-14.71h7.571L344.845,45.231z"/>
</g>
</svg>
